# xmcd
#
# Track frame offsets:
#	150
#	14654
#	28923
#	43500
#	57845
#	71420
#	84320
#	103145
#	117649
#	129523
#	145478
#	159339
#	173683
#	188028
#	200157
#	213994
#	228319
#
# Disc length: 3205 seconds
#
# Revision: 2
# Processed by: cddbd v1.5.2PL0 Copyright (c) Steve Scherf et al.
# Submitted via: audiograbber 1.83.01
#
DISCID=f40c8311
DTITLE=Coyote Serenade - yippy-yo-ki-yay
DYEAR=2004
DGENRE=Western
TTITLE0=Out California Way
TTITLE1=Leavin' Train
TTITLE2=Oklahoma Hills
TTITLE3=I've Endured
TTITLE4=Rocky Road Blues
TTITLE5=Prairie Polka
TTITLE6=Pony
TTITLE7=Wasting My Tears On You
TTITLE8=I'm Waiting at the Gate
TTITLE9=Wild Rose of the Mountain/Julianne Johnson
TTITLE10=Let The Mystery Be
TTITLE11=Lyin' Back Right Here Inside Your Arms
TTITLE12=To Live Is To Fly
TTITLE13=Never Gonna Let You Go Again
TTITLE14=Sweet Heaven
TTITLE15=Sail Away Ladies
TTITLE16=Serenade To A Coyote
EXTD=Coyote Serenade is made up of four local musicians with a passion for the 
EXTD=quirky side of country roots music. Multi-instrumentalists, Ukulele Lou, S
EXTD=agebrush Sue, Peyote Pete and Shorty Coyote bring you songs and tunes from
EXTD=some of the mostly forgotten, but superb country recording stars of the t
EXTD=hirties through to the contemporary alternative performers of today. They 
EXTD=bring you a tour-de-coyote of swinging harmonies, powerful picking and lai
EXTD=d-back rhythms. The Coyotes draw their material from the easy-going early 
EXTD=years of cowboy and cowgirl country, blues, swing and hillbilly as well as
EXTD=adding a few originals to the mix . . . not to mention boots, hats, frock
EXTD=s and fine jewellery!
EXTT0=
EXTT1=Linda Williams
EXTT2=
EXTT3=Ola Belle Reed
EXTT4=Bill Monroe
EXTT5=
EXTT6=Tom Waits
EXTT7=
EXTT8=
EXTT9=
EXTT10=Iris DeMent
EXTT11=
EXTT12=Townes Van Zandt
EXTT13=
EXTT14=
EXTT15=
EXTT16=
PLAYORDER=
